<?xml version="1.0" encoding="UTF-8"?>
<svg id="Capa_1" data-name="Capa 1" xmlns="http://www.w3.org/2000/svg" xmlns:xlink="http://www.w3.org/1999/xlink" viewBox="0 0 129.7 129.7">
  <defs>
    <style>
      .cls-1 {
        fill: #fff;
      }

      .cls-1, .cls-2, .cls-3 {
        stroke-width: 0px;
      }

      .cls-2 {
        fill: url(#Degradado_sin_nombre_15);
      }

      .cls-3 {
        fill: #16345f;
      }
    </style>
    <linearGradient id="Degradado_sin_nombre_15" data-name="Degradado sin nombre 15" x1="28.44" y1="64.85" x2="101.26" y2="64.85" gradientUnits="userSpaceOnUse">
      <stop offset=".08" stop-color="#00aa81"/>
      <stop offset=".55" stop-color="#00aa81" stop-opacity=".3"/>
      <stop offset="1" stop-color="#00aa81"/>
    </linearGradient>
  </defs>
  <path class="cls-2" d="m64.85,28.44c-20.11,0-36.41,16.3-36.41,36.41s16.3,36.41,36.41,36.41,36.41-16.3,36.41-36.41-16.3-36.41-36.41-36.41Zm0,69.91c-18.5,0-33.5-15-33.5-33.5s15-33.5,33.5-33.5,33.5,15,33.5,33.5-15,33.5-33.5,33.5Z"/>
  <circle class="cls-3" cx="64.85" cy="64.85" r="31.26"/>
  <path class="cls-1" d="m52.88,47.02h5.74l7.19,16.77,6.95-16.77h5.74l9.78,34.25h-10.81l-3.81-14.43-6.4,14.43h-3.14l-6.4-14.43-3.81,14.43h-10.81l9.78-34.25Z"/>
</svg>
