<?xml version="1.0" encoding="UTF-8"?>
<svg id="Capa_1" data-name="Capa 1" xmlns="http://www.w3.org/2000/svg" viewBox="0 0 219.83 83.49">
  <defs>
    <style>
      .cls-1 {
        fill: none;
      }

      .cls-1, .cls-2 {
        stroke-width: 0px;
      }

      .cls-2 {
        fill: #16345f;
      }
    </style>
  </defs>
  <g>
    <g>
      <path class="cls-2" d="m17.19,47.26c0,1.47.46,2.63,1.38,3.48.92.85,2.15,1.28,3.68,1.28,1.07,0,2.11-.2,3.12-.61,1.01-.4,1.75-.78,2.21-1.13v6.88c-2.02,1.01-4.2,1.51-6.53,1.51-3.49,0-6.3-1.07-8.44-3.22-2.14-2.15-3.2-4.88-3.2-8.2s1.07-6.05,3.2-8.2c2.13-2.15,4.95-3.22,8.44-3.22,2.31,0,4.44.49,6.4,1.47v6.92c-.58-.46-1.36-.87-2.34-1.21-.98-.35-1.93-.52-2.86-.52-1.5,0-2.72.43-3.66,1.3-.94.87-1.41,2.02-1.41,3.46Z"/>
      <path class="cls-2" d="m32.17,44.06v-6.84c1.99-.92,4.7-1.38,8.13-1.38s5.99.76,7.77,2.27c1.77,1.51,2.66,3.64,2.66,6.38v13.59h-6.92l-.17-1.69.09-1.38h-.09c-.43.98-1.19,1.84-2.27,2.57s-2.44,1.1-4.09,1.1c-1.93,0-3.56-.56-4.87-1.69-1.31-1.13-1.97-2.77-1.97-4.93,0-2.62,1.2-4.55,3.59-5.78,2.39-1.23,5.41-1.58,9.04-1.06v-.3c0-1.82-1.37-2.73-4.11-2.73-2.6,0-4.86.62-6.79,1.86Zm7.31,8.87c.98,0,1.79-.37,2.42-1.13.63-.75.95-1.73.95-2.94-1.76-.29-3.08-.2-3.96.26-.88.46-1.32,1.13-1.32,1.99,0,.55.17.99.52,1.32.35.33.81.5,1.38.5Z"/>
      <path class="cls-2" d="m55.23,67.6v-31.15h6.97l.17,1.6-.09,1.38h.09c.49-1.04,1.36-1.9,2.62-2.57,1.25-.68,2.63-1.02,4.13-1.02,2.86,0,5.25,1.02,7.18,3.07,1.93,2.05,2.9,4.83,2.9,8.35s-.95,6.3-2.86,8.35c-1.9,2.05-4.26,3.07-7.05,3.07-1.41,0-2.68-.26-3.81-.78s-1.99-1.2-2.6-2.03h-.09c.09.37.13.98.13,1.82v9.91h-7.7Zm12.38-15.32c1.27,0,2.31-.46,3.14-1.38.82-.92,1.23-2.13,1.23-3.63s-.42-2.71-1.25-3.63c-.84-.92-1.88-1.38-3.12-1.38s-2.24.45-3.09,1.34c-.85.89-1.28,2.12-1.28,3.68s.43,2.78,1.28,3.68c.85.89,1.88,1.34,3.09,1.34Z"/>
      <path class="cls-2" d="m83.61,33.2c-.75-.72-1.12-1.7-1.12-2.94s.37-2.21,1.12-2.92c.75-.71,1.76-1.06,3.03-1.06s2.27.35,3.01,1.06c.74.71,1.1,1.68,1.1,2.92s-.37,2.22-1.1,2.94c-.74.72-1.74,1.08-3.01,1.08s-2.28-.36-3.03-1.08Zm-.87,3.25h7.75v21.63h-7.75v-21.63Z"/>
      <path class="cls-2" d="m93,36.44h2.81v-6.49h7.49v6.49h5.37v5.97h-5.37v7.4c0,1.7.87,2.55,2.6,2.55,1.04,0,2.19-.29,3.46-.86v6.23c-1.33.63-3.26.95-5.8.95-1.99,0-3.69-.48-5.08-1.43-1.4-.95-2.27-2.45-2.62-4.5-.12-.92-.17-1.69-.17-2.29v-8.05h-2.68v-5.97Z"/>
      <path class="cls-2" d="m113.38,44.06v-6.84c1.99-.92,4.7-1.38,8.13-1.38s5.99.76,7.77,2.27c1.77,1.51,2.66,3.64,2.66,6.38v13.59h-6.92l-.17-1.69.09-1.38h-.09c-.43.98-1.19,1.84-2.27,2.57s-2.44,1.1-4.09,1.1c-1.93,0-3.56-.56-4.87-1.69-1.31-1.13-1.97-2.77-1.97-4.93,0-2.62,1.2-4.55,3.59-5.78,2.39-1.23,5.41-1.58,9.04-1.06v-.3c0-1.82-1.37-2.73-4.11-2.73-2.6,0-4.86.62-6.79,1.86Zm7.31,8.87c.98,0,1.79-.37,2.42-1.13.63-.75.95-1.73.95-2.94-1.76-.29-3.08-.2-3.96.26-.88.46-1.32,1.13-1.32,1.99,0,.55.17.99.52,1.32.35.33.81.5,1.38.5Z"/>
      <path class="cls-2" d="m136.27,51.54v-24.62h7.7v22.89c0,1.59.66,2.38,1.99,2.38.69,0,1.46-.19,2.29-.56v6.36c-1.07.46-2.64.69-4.72.69s-3.92-.58-5.26-1.73c-1.34-1.15-2.01-2.96-2.01-5.41Z"/>
    </g>
    <path class="cls-2" d="m180.29,11.61c-16.64,0-30.13,13.49-30.13,30.13s13.49,30.13,30.13,30.13,30.13-13.49,30.13-30.13-13.49-30.13-30.13-30.13Zm0,57.86c-15.31,0-27.73-12.41-27.73-27.73s12.41-27.73,27.73-27.73,27.73,12.41,27.73,27.73-12.41,27.73-27.73,27.73Z"/>
    <path class="cls-2" d="m180.29,15.88c-14.29,0-25.87,11.58-25.87,25.87s11.58,25.87,25.87,25.87,25.87-11.58,25.87-25.87-11.58-25.87-25.87-25.87Zm10.43,39.46l-3.15-11.94-5.3,11.94h-2.6l-5.3-11.94-3.15,11.94h-8.95l8.1-28.35h4.75l5.95,13.88,5.75-13.88h4.75l8.1,28.35h-8.95Z"/>
  </g>
  <rect class="cls-1" width="219.83" height="83.49"/>
</svg>