<?xml version="1.0" encoding="UTF-8"?>
<svg id="Capa_1" data-name="Capa 1" xmlns="http://www.w3.org/2000/svg" viewBox="0 0 153.49 140.39">
  <defs>
    <style>
      .cls-1 {
        fill: #fff;
        stroke-width: 0px;
      }
    </style>
  </defs>
  <g>
    <path class="cls-1" d="m25.51,32.46c0,1.22.38,2.19,1.15,2.9.77.71,1.79,1.06,3.06,1.06.89,0,1.75-.17,2.59-.5.84-.34,1.45-.65,1.83-.94v5.72c-1.68.84-3.49,1.26-5.43,1.26-2.9,0-5.24-.89-7.01-2.68-1.77-1.79-2.66-4.06-2.66-6.82s.89-5.03,2.66-6.82c1.77-1.79,4.11-2.68,7.01-2.68,1.92,0,3.69.41,5.32,1.22v5.76c-.48-.38-1.13-.72-1.94-1.01-.82-.29-1.61-.43-2.37-.43-1.25,0-2.26.36-3.04,1.08-.78.72-1.17,1.68-1.17,2.88Z"/>
    <path class="cls-1" d="m37.96,29.8v-5.68c1.65-.77,3.91-1.15,6.76-1.15s4.98.63,6.46,1.89c1.47,1.26,2.21,3.03,2.21,5.31v11.29h-5.76l-.14-1.4.07-1.15h-.07c-.36.82-.99,1.53-1.89,2.14-.9.61-2.03.92-3.4.92-1.61,0-2.96-.47-4.05-1.4-1.09-.94-1.64-2.3-1.64-4.1,0-2.18.99-3.78,2.99-4.8,1.99-1.02,4.5-1.31,7.52-.88v-.25c0-1.51-1.14-2.27-3.42-2.27-2.16,0-4.04.52-5.65,1.55Zm6.08,7.37c.82,0,1.49-.31,2.01-.94s.79-1.44.79-2.45c-1.46-.24-2.56-.17-3.29.22-.73.38-1.1.94-1.1,1.65,0,.46.14.82.43,1.1.29.28.67.41,1.15.41Z"/>
    <path class="cls-1" d="m57.13,49.37v-25.9h5.79l.14,1.33-.07,1.15h.07c.41-.86,1.13-1.58,2.18-2.14,1.04-.56,2.19-.85,3.43-.85,2.37,0,4.36.85,5.97,2.55s2.41,4.02,2.41,6.94-.79,5.24-2.37,6.94-3.54,2.55-5.86,2.55c-1.18,0-2.23-.22-3.16-.65-.94-.43-1.65-.99-2.16-1.69h-.07c.07.31.11.82.11,1.51v8.24h-6.4Zm10.29-12.73c1.05,0,1.92-.38,2.61-1.15s1.02-1.77,1.02-3.02-.35-2.25-1.04-3.02c-.7-.77-1.56-1.15-2.59-1.15s-1.86.37-2.57,1.12c-.71.74-1.06,1.76-1.06,3.06s.35,2.31,1.06,3.06c.71.74,1.56,1.12,2.57,1.12Z"/>
    <path class="cls-1" d="m80.72,20.77c-.62-.6-.94-1.41-.94-2.45s.31-1.84.94-2.43c.62-.59,1.46-.88,2.52-.88s1.89.29,2.5.88c.61.59.92,1.4.92,2.43s-.31,1.85-.92,2.45c-.61.6-1.45.9-2.5.9s-1.89-.3-2.52-.9Zm-.72,2.7h6.44v17.98h-6.44v-17.98Z"/>
    <path class="cls-1" d="m88.53,23.47h2.34v-5.4h6.22v5.4h4.46v4.96h-4.46v6.15c0,1.41.72,2.12,2.16,2.12.86,0,1.82-.24,2.88-.72v5.18c-1.1.53-2.71.79-4.82.79-1.65,0-3.06-.4-4.23-1.19-1.16-.79-1.89-2.04-2.18-3.74-.1-.77-.14-1.4-.14-1.91v-6.69h-2.23v-4.96Z"/>
    <path class="cls-1" d="m105.47,29.8v-5.68c1.65-.77,3.91-1.15,6.76-1.15s4.98.63,6.46,1.89,2.21,3.03,2.21,5.31v11.29h-5.75l-.14-1.4.07-1.15h-.07c-.36.82-.99,1.53-1.89,2.14-.9.61-2.03.92-3.4.92-1.61,0-2.96-.47-4.05-1.4-1.09-.94-1.64-2.3-1.64-4.1,0-2.18.99-3.78,2.99-4.8,1.99-1.02,4.5-1.31,7.52-.88v-.25c0-1.51-1.14-2.27-3.42-2.27-2.16,0-4.04.52-5.65,1.55Zm6.08,7.37c.81,0,1.49-.31,2.01-.94.53-.62.79-1.44.79-2.45-1.46-.24-2.56-.17-3.29.22s-1.1.94-1.1,1.65c0,.46.14.82.43,1.1.29.28.67.41,1.15.41Z"/>
    <path class="cls-1" d="m124.49,36.02V15.56h6.4v19.03c0,1.32.55,1.98,1.65,1.98.58,0,1.21-.16,1.91-.47v5.29c-.89.38-2.19.58-3.92.58s-3.26-.48-4.37-1.44c-1.12-.96-1.67-2.46-1.67-4.5Z"/>
  </g>
  <path class="cls-1" d="m76.57,52.55c-20.11,0-36.41,16.3-36.41,36.41s16.3,36.41,36.41,36.41,36.41-16.3,36.41-36.41-16.3-36.41-36.41-36.41Zm0,69.91c-18.5,0-33.5-15-33.5-33.5s15-33.5,33.5-33.5,33.5,15,33.5,33.5-15,33.5-33.5,33.5Z"/>
  <path class="cls-1" d="m76.57,57.7c-17.26,0-31.26,13.99-31.26,31.26s13.99,31.26,31.26,31.26,31.26-13.99,31.26-31.26-13.99-31.26-31.26-31.26Zm12.61,47.68l-3.81-14.43-6.4,14.43h-3.14l-6.4-14.43-3.81,14.43h-10.81l9.78-34.25h5.74l7.19,16.77,6.95-16.77h5.74l9.78,34.25h-10.81Z"/>
</svg>